<?xml version="1.0" encoding="UTF-8" standalone="no"?>
<svg
   xmlns:dc="http://purl.org/dc/elements/1.1/"
   xmlns:cc="http://creativecommons.org/ns#"
   xmlns:rdf="http://www.w3.org/1999/02/22-rdf-syntax-ns#"
   xmlns:svg="http://www.w3.org/2000/svg"
   xmlns="http://www.w3.org/2000/svg"
   xmlns:sodipodi="http://sodipodi.sourceforge.net/DTD/sodipodi-0.dtd"
   xmlns:inkscape="http://www.inkscape.org/namespaces/inkscape"
   width="200"
   height="200"
   viewBox="0 0 200 200"
   version="1.1"
   id="svg8"
   inkscape:version="1.0.2-2 (e86c870879, 2021-01-15)"
   sodipodi:docname="blossom.svg">
  <defs
     id="defs2" />
  <sodipodi:namedview
     id="base"
     pagecolor="#ffffff"
     bordercolor="#666666"
     borderopacity="1.0"
     inkscape:pageopacity="0.0"
     inkscape:pageshadow="2"
     inkscape:zoom="1.4"
     inkscape:cx="-88.187689"
     inkscape:cy="145.35714"
     inkscape:document-units="mm"
     inkscape:current-layer="layer1"
     inkscape:document-rotation="0"
     showgrid="false"
     inkscape:window-width="1920"
     inkscape:window-height="1009"
     inkscape:window-x="-8"
     inkscape:window-y="-8"
     inkscape:window-maximized="1" />
  <metadata
     id="metadata5">
    <rdf:RDF>
      <cc:Work
         rdf:about="">
        <dc:format>image/svg+xml</dc:format>
        <dc:type
           rdf:resource="http://purl.org/dc/dcmitype/StillImage" />
        <dc:title></dc:title>
      </cc:Work>
    </rdf:RDF>
  </metadata>
  <g
     inkscape:label="レイヤー 1"
     inkscape:groupmode="layer"
     id="layer1">
    <g
       id="g1856"
       transform="scale(3.7800996,3.7793457)">
      <g
         id="g1530"
         transform="matrix(0.97714087,0,0,1.0173359,-4.0545514,-2.4274216)">
        <g
           id="g1314"
           transform="translate(21.276896,2.9886027)">
          <path
             style="fill:none;stroke:#f8aba6;stroke-width:0.433222;stroke-linecap:butt;stroke-linejoin:miter;stroke-miterlimit:4;stroke-dasharray:none;stroke-opacity:1"
             d="M 2.7497361,-0.28781961 9.8039604,4.1180501 16.803493,-0.25366019"
             id="path1222" />
          <g
             id="g1286">
            <path
               id="path1216"
               style="fill:#f8aba6;fill-opacity:1;stroke:none;stroke-width:0.0569092;stroke-miterlimit:4;stroke-dasharray:none;stroke-opacity:1"
               d="m 3.0576946,-0.37052001 -0.3079917,0.0826823 A 13.219478,6.5965037 75 0 0 -0.04082438,13.401249 l 0.36173501,1.350822 A 13.219478,6.5965037 75 0 0 9.581844,25.214481 l 0.3090249,-0.0832 z m 6.8331743,25.50180201 0.3090251,0.0832 a 6.5965037,13.219478 15 0 0 9.26145,-10.46241 L 19.823079,13.40125 A 6.5965037,13.219478 15 0 0 17.032035,-0.28783772 l -0.307992,-0.0826823 z" />
            <path
               id="path1267"
               style="fill:#f8aba6;fill-opacity:1;stroke:#f8aba6;stroke-width:0.264999;stroke-miterlimit:4;stroke-dasharray:none;stroke-opacity:1"
               inkscape:transform-center-x="-1.1999822"
               inkscape:transform-center-y="-0.037794"
               d="M 16.724043,-0.37052002 9.5084627,3.9842529 3.2669835,0.25218097 3.1357253,8.7927448 7.0615836,6.6057982 16.965372,12.070064 Z" />
          </g>
          <path
             id="path1304"
             style="fill:#f8aba6;fill-opacity:1;stroke:#f8aba6;stroke-width:1.00157;stroke-miterlimit:4;stroke-dasharray:none;stroke-opacity:1"
             inkscape:transform-center-x="0.04724708"
             inkscape:transform-center-y="1.9552695"
             d="m 17.142578,23.572266 v 26.376953 l -6.43164,0.07617 6.43164,10.841797 v 0.560546 h 0.332031 L 37.382812,94.984375 56.230469,61.427734 h 2.341797 v -4.169922 l 4.410156,-7.851562 -4.410156,0.05273 V 23.572266 Z"
             transform="scale(0.26458333)" />
        </g>
        <g
           id="g1314-0"
           transform="rotate(75,18.581905,40.975807)">
          <path
             style="fill:none;stroke:#f8aba6;stroke-width:0.433222;stroke-linecap:butt;stroke-linejoin:miter;stroke-miterlimit:4;stroke-dasharray:none;stroke-opacity:1"
             d="M 2.7497361,-0.28781961 9.8039604,4.1180501 16.803493,-0.25366019"
             id="path1222-9" />
          <g
             id="g1286-8">
            <path
               id="path1216-9"
               style="fill:#f8aba6;fill-opacity:1;stroke:none;stroke-width:0.0569092;stroke-miterlimit:4;stroke-dasharray:none;stroke-opacity:1"
               d="m 3.0576946,-0.37052001 -0.3079917,0.0826823 A 13.219478,6.5965037 75 0 0 -0.04082438,13.401249 l 0.36173501,1.350822 A 13.219478,6.5965037 75 0 0 9.581844,25.214481 l 0.3090249,-0.0832 z m 6.8331743,25.50180201 0.3090251,0.0832 a 6.5965037,13.219478 15 0 0 9.26145,-10.46241 L 19.823079,13.40125 A 6.5965037,13.219478 15 0 0 17.032035,-0.28783772 l -0.307992,-0.0826823 z" />
            <path
               id="path1267-7"
               style="fill:#f8aba6;fill-opacity:1;stroke:#f8aba6;stroke-width:0.264999;stroke-miterlimit:4;stroke-dasharray:none;stroke-opacity:1"
               inkscape:transform-center-x="-1.1999822"
               inkscape:transform-center-y="-0.037794"
               d="M 16.724043,-0.37052002 9.5084627,3.9842529 3.2669835,0.25218097 3.1357253,8.7927448 7.0615836,6.6057982 16.965372,12.070064 Z" />
          </g>
          <path
             id="path1304-3"
             style="fill:#f8aba6;fill-opacity:1;stroke:#f8aba6;stroke-width:1.00157;stroke-miterlimit:4;stroke-dasharray:none;stroke-opacity:1"
             inkscape:transform-center-x="0.04724708"
             inkscape:transform-center-y="1.9552695"
             d="m 17.142578,23.572266 v 26.376953 l -6.43164,0.07617 6.43164,10.841797 v 0.560546 h 0.332031 L 37.382812,94.984375 56.230469,61.427734 h 2.341797 v -4.169922 l 4.410156,-7.851562 -4.410156,0.05273 V 23.572266 Z"
             transform="scale(0.26458333)" />
        </g>
        <g
           id="g1314-0-1"
           transform="rotate(-75,22.476728,13.247217)">
          <path
             style="fill:none;stroke:#f8aba6;stroke-width:0.433222;stroke-linecap:butt;stroke-linejoin:miter;stroke-miterlimit:4;stroke-dasharray:none;stroke-opacity:1"
             d="M 2.7497361,-0.28781961 9.8039604,4.1180501 16.803493,-0.25366019"
             id="path1222-9-8" />
          <g
             id="g1286-8-3">
            <path
               id="path1216-9-3"
               style="fill:#f8aba6;fill-opacity:1;stroke:none;stroke-width:0.0569092;stroke-miterlimit:4;stroke-dasharray:none;stroke-opacity:1"
               d="m 3.0576946,-0.37052001 -0.3079917,0.0826823 A 13.219478,6.5965037 75 0 0 -0.04082438,13.401249 l 0.36173501,1.350822 A 13.219478,6.5965037 75 0 0 9.581844,25.214481 l 0.3090249,-0.0832 z m 6.8331743,25.50180201 0.3090251,0.0832 a 6.5965037,13.219478 15 0 0 9.26145,-10.46241 L 19.823079,13.40125 A 6.5965037,13.219478 15 0 0 17.032035,-0.28783772 l -0.307992,-0.0826823 z" />
            <path
               id="path1267-7-0"
               style="fill:#f8aba6;fill-opacity:1;stroke:#f8aba6;stroke-width:0.264999;stroke-miterlimit:4;stroke-dasharray:none;stroke-opacity:1"
               inkscape:transform-center-x="-1.1999822"
               inkscape:transform-center-y="-0.037794"
               d="M 16.724043,-0.37052002 9.5084627,3.9842529 3.2669835,0.25218097 3.1357253,8.7927448 7.0615836,6.6057982 16.965372,12.070064 Z" />
          </g>
          <path
             id="path1304-3-0"
             style="fill:#f8aba6;fill-opacity:1;stroke:#f8aba6;stroke-width:1.00157;stroke-miterlimit:4;stroke-dasharray:none;stroke-opacity:1"
             inkscape:transform-center-x="0.04724708"
             inkscape:transform-center-y="1.9552695"
             d="m 17.142578,23.572266 v 26.376953 l -6.43164,0.07617 6.43164,10.841797 v 0.560546 h 0.332031 L 37.382812,94.984375 56.230469,61.427734 h 2.341797 v -4.169922 l 4.410156,-7.851562 -4.410156,0.05273 V 23.572266 Z"
             transform="scale(0.26458333)" />
        </g>
        <g
           id="g1314-2"
           transform="rotate(-150,20.577621,24.018182)">
          <path
             style="fill:none;stroke:#f8aba6;stroke-width:0.433222;stroke-linecap:butt;stroke-linejoin:miter;stroke-miterlimit:4;stroke-dasharray:none;stroke-opacity:1"
             d="M 2.7497361,-0.28781961 9.8039604,4.1180501 16.803493,-0.25366019"
             id="path1222-5" />
          <g
             id="g1286-3">
            <path
               id="path1216-5"
               style="fill:#f8aba6;fill-opacity:1;stroke:none;stroke-width:0.0569092;stroke-miterlimit:4;stroke-dasharray:none;stroke-opacity:1"
               d="m 3.0576946,-0.37052001 -0.3079917,0.0826823 A 13.219478,6.5965037 75 0 0 -0.04082438,13.401249 l 0.36173501,1.350822 A 13.219478,6.5965037 75 0 0 9.581844,25.214481 l 0.3090249,-0.0832 z m 6.8331743,25.50180201 0.3090251,0.0832 a 6.5965037,13.219478 15 0 0 9.26145,-10.46241 L 19.823079,13.40125 A 6.5965037,13.219478 15 0 0 17.032035,-0.28783772 l -0.307992,-0.0826823 z" />
            <path
               id="path1267-2"
               style="fill:#f8aba6;fill-opacity:1;stroke:#f8aba6;stroke-width:0.264999;stroke-miterlimit:4;stroke-dasharray:none;stroke-opacity:1"
               inkscape:transform-center-x="-1.1999822"
               inkscape:transform-center-y="-0.037794"
               d="M 16.724043,-0.37052002 9.5084627,3.9842529 3.2669835,0.25218097 3.1357253,8.7927448 7.0615836,6.6057982 16.965372,12.070064 Z" />
          </g>
          <path
             id="path1304-35"
             style="fill:#f8aba6;fill-opacity:1;stroke:#f8aba6;stroke-width:1.00157;stroke-miterlimit:4;stroke-dasharray:none;stroke-opacity:1"
             inkscape:transform-center-x="0.04724708"
             inkscape:transform-center-y="1.9552695"
             d="m 17.142578,23.572266 v 26.376953 l -6.43164,0.07617 6.43164,10.841797 v 0.560546 h 0.332031 L 37.382812,94.984375 56.230469,61.427734 h 2.341797 v -4.169922 l 4.410156,-7.851562 -4.410156,0.05273 V 23.572266 Z"
             transform="scale(0.26458333)" />
        </g>
        <g
           id="g1314-2-1"
           transform="matrix(0.8660254,-0.5,-0.5,-0.8660254,35.945872,55.427378)">
          <path
             style="fill:none;stroke:#f8aba6;stroke-width:0.433222;stroke-linecap:butt;stroke-linejoin:miter;stroke-miterlimit:4;stroke-dasharray:none;stroke-opacity:1"
             d="M 2.7497361,-0.28781961 9.8039604,4.1180501 16.803493,-0.25366019"
             id="path1222-5-1" />
          <g
             id="g1286-3-8">
            <path
               id="path1216-5-1"
               style="fill:#f8aba6;fill-opacity:1;stroke:none;stroke-width:0.0569092;stroke-miterlimit:4;stroke-dasharray:none;stroke-opacity:1"
               d="m 3.0576946,-0.37052001 -0.3079917,0.0826823 A 13.219478,6.5965037 75 0 0 -0.04082438,13.401249 l 0.36173501,1.350822 A 13.219478,6.5965037 75 0 0 9.581844,25.214481 l 0.3090249,-0.0832 z m 6.8331743,25.50180201 0.3090251,0.0832 a 6.5965037,13.219478 15 0 0 9.26145,-10.46241 L 19.823079,13.40125 A 6.5965037,13.219478 15 0 0 17.032035,-0.28783772 l -0.307992,-0.0826823 z" />
            <path
               id="path1267-2-3"
               style="fill:#f8aba6;fill-opacity:1;stroke:#f8aba6;stroke-width:0.264999;stroke-miterlimit:4;stroke-dasharray:none;stroke-opacity:1"
               inkscape:transform-center-x="-1.1999822"
               inkscape:transform-center-y="-0.037794"
               d="M 16.724043,-0.37052002 9.5084627,3.9842529 3.2669835,0.25218097 3.1357253,8.7927448 7.0615836,6.6057982 16.965372,12.070064 Z" />
          </g>
          <path
             id="path1304-35-2"
             style="fill:#f8aba6;fill-opacity:1;stroke:#f8aba6;stroke-width:1.00157;stroke-miterlimit:4;stroke-dasharray:none;stroke-opacity:1"
             inkscape:transform-center-x="0.04724708"
             inkscape:transform-center-y="1.9552695"
             d="m 17.142578,23.572266 v 26.376953 l -6.43164,0.07617 6.43164,10.841797 v 0.560546 h 0.332031 L 37.382812,94.984375 56.230469,61.427734 h 2.341797 v -4.169922 l 4.410156,-7.851562 -4.410156,0.05273 V 23.572266 Z"
             transform="scale(0.26458333)" />
        </g>
      </g>
      <g
         id="g1800">
        <circle
           style="fill:#ffffff;fill-opacity:1;stroke:none;stroke-width:0.188618;stroke-miterlimit:4;stroke-dasharray:none;stroke-opacity:1"
           id="path1534"
           cx="-26.454327"
           cy="26.459608"
           r="6.6145835"
           transform="scale(-1,1)" />
        <g
           id="g1776">
          <g
             id="g1754">
            <rect
               style="fill:#ffffff;fill-opacity:1;stroke:none;stroke-width:0.0761273;stroke-miterlimit:4;stroke-dasharray:none;stroke-opacity:1"
               id="rect1536"
               width="0.26458332"
               height="5.2916665"
               x="26.322035"
               y="14.553358" />
            <rect
               style="fill:#ffffff;fill-opacity:1;stroke:none;stroke-width:0.0538301;stroke-miterlimit:4;stroke-dasharray:none;stroke-opacity:1"
               id="rect1536-7"
               width="0.26458332"
               height="2.6458333"
               x="28.790909"
               y="17.833958" />
            <rect
               style="fill:#ffffff;fill-opacity:1;stroke:none;stroke-width:0.0538301;stroke-miterlimit:4;stroke-dasharray:none;stroke-opacity:1"
               id="rect1536-7-6"
               width="0.26458332"
               height="2.6458333"
               x="-24.028406"
               y="17.833958"
               transform="scale(-1,1)" />
          </g>
          <g
             id="g1609"
             transform="rotate(75,34.145623,23.991535)">
            <rect
               style="fill:#ffffff;fill-opacity:1;stroke:none;stroke-width:0.0761273;stroke-miterlimit:4;stroke-dasharray:none;stroke-opacity:1"
               id="rect1536-0"
               width="0.26458332"
               height="5.2916665"
               x="34.390148"
               y="20.289232" />
            <rect
               style="fill:#ffffff;fill-opacity:1;stroke:none;stroke-width:0.0538301;stroke-miterlimit:4;stroke-dasharray:none;stroke-opacity:1"
               id="rect1536-7-3"
               width="0.26458332"
               height="2.6458333"
               x="36.85902"
               y="23.569832" />
            <rect
               style="fill:#ffffff;fill-opacity:1;stroke:none;stroke-width:0.0538301;stroke-miterlimit:4;stroke-dasharray:none;stroke-opacity:1"
               id="rect1536-7-6-3"
               width="0.26458332"
               height="2.6458333"
               x="-32.096519"
               y="23.569832"
               transform="scale(-1,1)" />
          </g>
          <g
             id="g1609-5"
             transform="rotate(150,31.359238,28.146219)">
            <rect
               style="fill:#ffffff;fill-opacity:1;stroke:none;stroke-width:0.0761273;stroke-miterlimit:4;stroke-dasharray:none;stroke-opacity:1"
               id="rect1536-0-2"
               width="0.26458332"
               height="5.2916665"
               x="34.390148"
               y="20.289232" />
            <rect
               style="fill:#ffffff;fill-opacity:1;stroke:none;stroke-width:0.0538301;stroke-miterlimit:4;stroke-dasharray:none;stroke-opacity:1"
               id="rect1536-7-3-0"
               width="0.26458332"
               height="2.6458333"
               x="36.85902"
               y="23.569832" />
            <rect
               style="fill:#ffffff;fill-opacity:1;stroke:none;stroke-width:0.0538301;stroke-miterlimit:4;stroke-dasharray:none;stroke-opacity:1"
               id="rect1536-7-6-3-6"
               width="0.26458332"
               height="2.6458333"
               x="-32.096519"
               y="23.569832"
               transform="scale(-1,1)" />
          </g>
          <g
             id="g1609-55"
             transform="matrix(-0.25881905,0.96592583,0.96592583,0.25881905,4.3565218,-15.324255)">
            <rect
               style="fill:#ffffff;fill-opacity:1;stroke:none;stroke-width:0.0761273;stroke-miterlimit:4;stroke-dasharray:none;stroke-opacity:1"
               id="rect1536-0-9"
               width="0.26458332"
               height="5.2916665"
               x="34.390148"
               y="20.289232" />
            <rect
               style="fill:#ffffff;fill-opacity:1;stroke:none;stroke-width:0.0538301;stroke-miterlimit:4;stroke-dasharray:none;stroke-opacity:1"
               id="rect1536-7-3-6"
               width="0.26458332"
               height="2.6458333"
               x="36.85902"
               y="23.569832" />
            <rect
               style="fill:#ffffff;fill-opacity:1;stroke:none;stroke-width:0.0538301;stroke-miterlimit:4;stroke-dasharray:none;stroke-opacity:1"
               id="rect1536-7-6-3-2"
               width="0.26458332"
               height="2.6458333"
               x="-32.096519"
               y="23.569832"
               transform="scale(-1,1)" />
          </g>
          <g
             id="g1609-5-2"
             transform="matrix(0.8660254,0.5,0.5,-0.8660254,-19.751594,36.717756)">
            <rect
               style="fill:#ffffff;fill-opacity:1;stroke:none;stroke-width:0.0761273;stroke-miterlimit:4;stroke-dasharray:none;stroke-opacity:1"
               id="rect1536-0-2-6"
               width="0.26458332"
               height="5.2916665"
               x="34.390148"
               y="20.289232" />
            <rect
               style="fill:#ffffff;fill-opacity:1;stroke:none;stroke-width:0.0538301;stroke-miterlimit:4;stroke-dasharray:none;stroke-opacity:1"
               id="rect1536-7-3-0-4"
               width="0.26458332"
               height="2.6458333"
               x="36.85902"
               y="23.569832" />
            <rect
               style="fill:#ffffff;fill-opacity:1;stroke:none;stroke-width:0.0538301;stroke-miterlimit:4;stroke-dasharray:none;stroke-opacity:1"
               id="rect1536-7-6-3-6-7"
               width="0.26458332"
               height="2.6458333"
               x="-32.096519"
               y="23.569832"
               transform="scale(-1,1)" />
          </g>
        </g>
      </g>
    </g>
  </g>
</svg>
